PathFileType	4	(X/Y/Z)	s08c0301.trc
DataRate	CameraRate	NumFrames	NumMarkers	Units	OrigDataRate	OrigDataStartFrame	OrigNumFrames
200	200	4	50	mm	200	1500	2000
Frame#	Time	racr			lacr			c7			jug			rlel			rdr			llel			ldr			s2			lic			ric			lasi			rasi			rpsi			lpsi			rgt			lgt			rth1			rth2			rth3			rth4			rlfc			rmfc			rsh1			rsh2			rsh3			rsh4			rlmal			rmmal			rcal			rtoe			rmt5			lth1			lth2			lth4			lth3			llfc			lmfc			llmal			lmmal			lcal			lmt5			lsh1			lsh2			lsh3			lsh4			ltoe			SBIKE			LBIKE			RBIKE			
		X1	Y1	Z1	X2	Y2	Z2	X3	Y3	Z3	X4	Y4	Z4	X5	Y5	Z5	X6	Y6	Z6	X7	Y7	Z7	X8	Y8	Z8	X9	Y9	Z9	X10	Y10	Z10	X11	Y11	Z11	X12	Y12	Z12	X13	Y13	Z13	X14	Y14	Z14	X15	Y15	Z15	X16	Y16	Z16	X17	Y17	Z17	X18	Y18	Z18	X19	Y19	Z19	X20	Y20	Z20	X21	Y21	Z21	X22	Y22	Z22	X23	Y23	Z23	X24	Y24	Z24	X25	Y25	Z25	X26	Y26	Z26	X27	Y27	Z27	X28	Y28	Z28	X29	Y29	Z29	X30	Y30	Z30	X31	Y31	Z31	X32	Y32	Z32	X33	Y33	Z33	X34	Y34	Z34	X35	Y35	Z35	X36	Y36	Z36	X37	Y37	Z37	X38	Y38	Z38	X39	Y39	Z39	X40	Y40	Z40	X41	Y41	Z41	X42	Y42	Z42	X43	Y43	Z43	X44	Y44	Z44	X45	Y45	Z45	X46	Y46	Z46	X47	Y47	Z47	X48	Y48	Z48	X49	Y49	Z49	X50	Y50	Z50	
1500	7.5000	552.722573	1378.704634	-102.399744	538.832223	1381.508896	-438.587538	526.564543	1450.656713	-268.275486	487.638012	1297.820549	-262.237395	625.939214	1135.915963	-16.034719	801.596265	883.553375	-72.480791	641.432937	1136.407324	-486.380218	804.184400	885.614898	-422.702050	-30.247653	1210.829009	-231.849999	139.297986	1212.682905	-399.048468	148.242079	1201.962428	-77.757064	148.730136	1165.143355	-340.621762	163.584088	1136.081396	-101.325181	9.270391	1244.897231	-177.488714	3.593442	1255.191009	-271.389249	42.349292	1085.684306	-45.191436	83.940461	1135.684437	-430.673337	110.544524	921.532412	-29.884457	164.464736	850.430879	-31.586703	176.231009	764.797773	-48.316260	198.623387	865.041252	-38.732027	229.394345	664.095775	-70.985495	208.777730	649.956015	-179.312045	179.114072	543.739842	-35.448236	195.544388	456.595219	-49.680616	166.323222	375.225062	-55.201055	225.953551	457.251397	-77.558267	150.025164	255.613508	-62.085250	169.885327	274.310156	-149.330823	75.405507	247.576374	-110.616059	355.325477	147.568153	-105.238841	261.047526	144.344526	-39.689543	189.011439	1076.486400	-427.171767	275.758157	1071.343049	-421.293855	286.615063	1101.304529	-401.634793	348.643916	1024.735081	-435.297128	455.127333	939.677213	-412.863441	460.815842	910.591448	-299.902807	226.373343	589.638963	-403.361540	254.834165	603.017251	-320.320864	151.133006	576.323918	-365.032472	345.624621	484.560001	-423.955291	399.305030	828.627060	-429.580501	367.078086	752.506655	-414.737528	298.756300	694.097135	-413.855662	385.177584	739.722536	-375.822072	429.657997	500.648473	-354.593566	-140.063934	940.852772	-228.675400	16.870244	79.953702	-427.511743	16.730726	80.020240	-29.192573	
1501	7.5050	552.656501	1378.670730	-102.337266	538.809011	1381.407889	-438.414636	526.466931	1450.723515	-268.106282	487.508590	1297.921728	-262.144045	626.056119	1135.995313	-16.260096	801.611068	883.551206	-72.495885	641.559336	1136.439806	-486.379127	804.208055	885.553686	-422.719257	-30.672474	1211.428065	-232.343597	139.244828	1212.898148	-399.080875	147.199570	1202.874150	-77.961209	148.210867	1165.399733	-340.499930	162.750957	1136.878393	-101.135105	8.818403	1245.583366	-178.096938	3.333076	1255.703323	-272.079956	41.444873	1086.467355	-45.242029	83.856559	1136.007537	-430.806051	110.609874	922.249823	-29.943532	164.970957	851.581965	-31.667548	177.247150	766.297797	-48.866514	199.096523	866.416195	-38.493974	230.878420	665.696071	-71.132484	210.616764	651.661463	-179.442325	178.287851	546.038212	-35.475011	192.414182	458.572427	-49.980289	161.068403	377.940523	-55.455843	222.677638	458.449963	-78.204004	141.103475	259.176119	-61.432711	160.807138	277.910687	-148.715236	66.700781	250.950711	-110.713231	346.102586	149.665864	-105.166654	251.781116	146.880326	-39.611968	188.961708	1077.080579	-427.011216	275.705559	1072.095419	-420.718572	286.353379	1101.964117	-400.739469	348.652826	1025.689346	-434.508825	455.186076	940.058614	-411.545303	460.918577	910.926443	-299.115179	233.411943	585.382520	-403.275745	261.415191	599.175762	-320.136419	158.270246	570.744730	-365.106175	354.414768	482.469636	-424.077333	401.401061	827.940407	-428.898010	370.894140	751.229432	-414.428671	303.701753	691.227160	-413.467553	389.084043	738.874321	-375.668517	438.244326	500.000385	-354.633783	-140.050721	940.845684	-228.658389	16.848845	80.108386	-427.624064	16.750840	80.023339	-29.185014	
1502	7.5100	552.526268	1378.629549	-102.222692	538.732497	1381.244600	-438.137336	526.283151	1450.783166	-267.872671	487.247195	1297.920668	-261.902646	626.095001	1136.082002	-16.436462	801.615246	883.554124	-72.502953	641.703602	1136.468184	-486.373416	804.979576	886.700501	-424.612054	-31.154577	1211.864569	-233.070280	139.158632	1213.043858	-399.120563	146.438633	1203.660594	-78.002146	147.793684	1165.501966	-340.434655	161.873162	1137.636877	-100.998410	8.122793	1246.251490	-178.782884	2.932391	1256.111670	-272.731390	40.522963	1087.423877	-45.339125	83.727288	1136.106534	-430.925011	110.963589	923.119382	-30.170163	165.994579	852.891001	-31.689922	178.982438	767.924961	-49.291546	200.013948	868.108042	-38.367872	232.880385	667.415494	-71.245244	212.803930	653.758929	-179.805424	177.944876	548.677515	-35.484884	189.609510	460.798216	-50.278373	156.169993	381.011908	-55.666340	219.738536	459.990471	-78.675276	132.959381	262.861168	-61.614929	152.544958	281.198224	-149.018250	58.303759	254.901517	-110.834992	337.173745	152.225505	-105.076600	242.794595	150.067986	-39.508749	188.867756	1077.446195	-426.867112	275.585311	1072.340926	-420.086479	286.133201	1102.077036	-399.871690	348.649131	1025.864461	-433.539913	455.087620	939.754602	-409.786252	460.790953	910.685834	-298.147596	240.163894	580.670163	-403.205951	268.015845	594.828350	-320.267135	165.292970	564.693477	-365.229407	362.887779	480.030454	-424.238082	403.301104	826.602167	-428.260654	374.339546	749.108206	-413.770228	308.440381	687.899315	-413.089727	392.729556	738.170075	-376.710387	446.549942	498.748407	-354.648074	-140.050712	940.852539	-228.632726	16.879788	79.971051	-427.511066	16.749689	80.037682	-29.161304	
1503	7.5150	552.272987	1378.567656	-102.032935	538.650643	1381.047280	-437.833619	526.002158	1450.810807	-267.617957	486.961374	1297.863142	-261.561063	626.049806	1136.150525	-16.539403	801.588168	883.603955	-72.524142	641.862041	1136.488474	-486.323369	805.060638	886.695537	-424.732865	-31.709752	1212.143713	-233.667382	139.070843	1213.106518	-399.200084	145.324342	1204.583220	-78.178625	147.364174	1165.544588	-340.409001	160.911213	1138.476358	-100.867333	7.372079	1246.865642	-179.577400	2.414771	1256.359444	-273.459036	39.809001	1088.189700	-45.391215	83.506606	1136.021824	-431.055064	111.685759	924.027557	-30.481859	167.308509	854.438654	-31.762704	181.211299	769.667716	-49.628482	201.215032	869.881155	-38.351931	235.323772	669.315526	-71.262382	214.160186	656.525896	-180.928424	177.958736	551.367604	-35.428934	187.241079	463.234121	-50.573213	151.700002	384.446794	-55.893993	217.207729	461.756182	-79.115510	125.142712	266.821861	-61.995201	144.679525	284.869355	-149.479832	50.257998	259.363092	-110.977938	328.466584	155.271110	-105.094756	234.177203	153.549172	-39.465700	188.732615	1077.431354	-426.695683	275.429493	1072.165252	-419.517553	285.911314	1101.806927	-399.179313	348.504689	1025.584546	-432.637642	454.749021	938.846177	-407.906595	460.533129	909.947886	-297.289346	246.891270	575.454728	-403.198180	275.079809	590.291313	-319.321373	172.232234	558.298345	-365.287870	371.165283	476.988003	-424.359945	404.985148	824.761100	-427.648910	377.673070	746.765232	-413.433221	312.983128	684.126895	-412.735201	396.148983	736.154373	-376.236647	454.617874	496.933808	-354.727662	-140.058016	940.846749	-228.620048	16.875304	79.981410	-427.514919	16.756503	80.013011	-29.177444	
